<svg width="24" height="25" viewBox="0 0 24 25" fill="none" xmlns="http://www.w3.org/2000/svg">
<path d="M6 2.07715L3 6.07715V20.0771C3 20.6076 3.21071 21.1163 3.58579 21.4914C3.96086 21.8664 4.46957 22.0771 5 22.0771H19C19.5304 22.0771 20.0391 21.8664 20.4142 21.4914C20.7893 21.1163 21 20.6076 21 20.0771V6.07715L18 2.07715H6Z" stroke="#212529" stroke-width="2" stroke-linecap="square" stroke-linejoin="round"/>
<path d="M4 6.07715H20" stroke="#212529" stroke-width="2" stroke-linecap="square" stroke-linejoin="round"/>
<path d="M16 10.0771C16 11.138 15.5786 12.1554 14.8284 12.9056C14.0783 13.6557 13.0609 14.0771 12 14.0771C10.9391 14.0771 9.92172 13.6557 9.17157 12.9056C8.42143 12.1554 8 11.138 8 10.0771" stroke="#212529" stroke-width="2" stroke-linecap="square" stroke-linejoin="round"/>
</svg>
