<svg width="32" height="33" viewBox="0 0 32 33" fill="none" xmlns="http://www.w3.org/2000/svg">
<g clip-path="url(#clip0_1274_6147)">
<path d="M15 15.8505L4 11.2239V21.5305C4.0058 21.9603 4.13441 22.3795 4.37066 22.7386C4.6069 23.0977 4.94093 23.3818 5.33333 23.5572L14.92 28.0772H15V15.8505Z" fill="white"/>
<path d="M16 14.0771L27.3467 9.31708C27.1557 9.10492 26.9246 8.93271 26.6667 8.81041L17.0667 4.31708C16.7332 4.15926 16.3689 4.07739 16 4.07739C15.6311 4.07739 15.2668 4.15926 14.9333 4.31708L5.33332 8.81041C5.0754 8.93271 4.84428 9.10492 4.65332 9.31708L16 14.0771Z" fill="white"/>
<path d="M17 15.8505V28.0772H17.0667L26.6667 23.5572C27.057 23.3827 27.3897 23.1007 27.6258 22.7442C27.8619 22.3877 27.9917 21.9714 28 21.5439V11.2239L17 15.8505Z" fill="white"/>
</g>
<defs>
<clipPath id="clip0_1274_6147">
<rect width="32" height="32" fill="white" transform="translate(0 0.0771484)"/>
</clipPath>
</defs>
</svg>
