<svg width="32" height="33" viewBox="0 0 32 33" fill="none" xmlns="http://www.w3.org/2000/svg">
<g clip-path="url(#clip0_1274_6149)">
<path d="M16.0002 28.0772C15.8247 28.0782 15.6507 28.0446 15.4883 27.9782C15.3258 27.9118 15.1781 27.8141 15.0535 27.6905L4.69349 17.3172C3.39397 16.0041 2.66504 14.2313 2.66504 12.3838C2.66504 10.5364 3.39397 8.7636 4.69349 7.4505C6.00317 6.14452 7.77726 5.41113 9.62682 5.41113C11.4764 5.41113 13.2505 6.14452 14.5602 7.4505L16.0002 8.8905L17.4402 7.4505C18.7498 6.14452 20.5239 5.41113 22.3735 5.41113C24.223 5.41113 25.9971 6.14452 27.3068 7.4505C28.6063 8.7636 29.3353 10.5364 29.3353 12.3838C29.3353 14.2313 28.6063 16.0041 27.3068 17.3172L16.9468 27.6905C16.8222 27.8141 16.6745 27.9118 16.512 27.9782C16.3496 28.0446 16.1756 28.0782 16.0002 28.0772Z" fill="white"/>
</g>
<defs>
<clipPath id="clip0_1274_6149">
<rect width="32" height="32" fill="white" transform="translate(0 0.0771484)"/>
</clipPath>
</defs>
</svg>
