<svg width="24" height="24" viewBox="0 0 24 25" fill="none" xmlns="http://www.w3.org/2000/svg">
<g clip-path="url(#clip0_1563_187)">
<path d="M20.05 11.0771H3.95C3.42533 11.0771 3 11.5025 3 12.0271V12.1271C3 12.6518 3.42533 13.0771 3.95 13.0771H20.05C20.5747 13.0771 21 12.6518 21 12.1271V12.0271C21 11.5025 20.5747 11.0771 20.05 11.0771Z" fill="white"/>
<path d="M20.05 16.0771H3.95C3.42533 16.0771 3 16.5025 3 17.0271V17.1271C3 17.6518 3.42533 18.0771 3.95 18.0771H20.05C20.5747 18.0771 21 17.6518 21 17.1271V17.0271C21 16.5025 20.5747 16.0771 20.05 16.0771Z" fill="white"/>
<path d="M20.05 6.07715H3.95C3.42533 6.07715 3 6.50248 3 7.02715V7.12715C3 7.65182 3.42533 8.07715 3.95 8.07715H20.05C20.5747 8.07715 21 7.65182 21 7.12715V7.02715C21 6.50248 20.5747 6.07715 20.05 6.07715Z" fill="white"/>
</g>
<defs>
<clipPath id="clip0_1563_187">
<rect width="24" height="24" fill="white" transform="translate(0 0.0771484)"/>
</clipPath>
</defs>
</svg>
